<?xml version="1.0" encoding="UTF-8"?>
<svg xmlns="http://www.w3.org/2000/svg" width="1280" height="800" viewBox="0 0 1280 800">
  <defs>
    <linearGradient id="bg" x1="0%" y1="0%" x2="100%" y2="100%">
      <stop offset="0%" stop-color="#dce8f8"/>
      <stop offset="100%" stop-color="#e8e0f8"/>
    </linearGradient>
    <linearGradient id="accent" x1="0%" y1="0%" x2="100%" y2="0%">
      <stop offset="0%" stop-color="#f472b6"/>
      <stop offset="100%" stop-color="#7b9cff"/>
    </linearGradient>
  </defs>
  <rect width="1280" height="800" fill="url(#bg)"/>
  <g opacity="0.12" stroke="#7b9cff" stroke-width="1">
    <line x1="0" y1="60" x2="1280" y2="60"/><line x1="0" y1="124" x2="1280" y2="124"/><line x1="0" y1="188" x2="1280" y2="188"/><line x1="0" y1="252" x2="1280" y2="252"/><line x1="0" y1="316" x2="1280" y2="316"/><line x1="0" y1="380" x2="1280" y2="380"/><line x1="0" y1="444" x2="1280" y2="444"/><line x1="0" y1="508" x2="1280" y2="508"/><line x1="0" y1="572" x2="1280" y2="572"/><line x1="0" y1="636" x2="1280" y2="636"/><line x1="0" y1="700" x2="1280" y2="700"/><line x1="0" y1="764" x2="1280" y2="764"/>
    <line x1="0" y1="0" x2="0" y2="800"/><line x1="64" y1="0" x2="64" y2="800"/><line x1="128" y1="0" x2="128" y2="800"/><line x1="192" y1="0" x2="192" y2="800"/><line x1="256" y1="0" x2="256" y2="800"/><line x1="320" y1="0" x2="320" y2="800"/><line x1="384" y1="0" x2="384" y2="800"/><line x1="448" y1="0" x2="448" y2="800"/><line x1="512" y1="0" x2="512" y2="800"/><line x1="576" y1="0" x2="576" y2="800"/><line x1="640" y1="0" x2="640" y2="800"/><line x1="704" y1="0" x2="704" y2="800"/><line x1="768" y1="0" x2="768" y2="800"/><line x1="832" y1="0" x2="832" y2="800"/><line x1="896" y1="0" x2="896" y2="800"/><line x1="960" y1="0" x2="960" y2="800"/><line x1="1024" y1="0" x2="1024" y2="800"/><line x1="1088" y1="0" x2="1088" y2="800"/><line x1="1152" y1="0" x2="1152" y2="800"/><line x1="1216" y1="0" x2="1216" y2="800"/>
  </g>
  <rect x="80" y="80" width="1120" height="640" rx="24" fill="rgba(255,255,255,0.72)" stroke="rgba(123,156,255,0.25)" stroke-width="2"/>
  <rect x="80" y="80" width="1120" height="48" rx="24" fill="url(#accent)"/>
  <circle cx="108" cy="104" r="8" fill="#ffb8dd"/><circle cx="132" cy="104" r="8" fill="#fff" opacity="0.7"/><circle cx="156" cy="104" r="8" fill="#fff" opacity="0.7"/>
  <text x="640" y="380" text-anchor="middle" font-family="Nunito,Segoe UI,sans-serif" font-size="56" font-weight="800" fill="#3d4f7a">PokemonHoopa</text>
  <text x="640" y="450" text-anchor="middle" font-family="IBM Plex Mono,Consolas,monospace" font-size="22" fill="#7a8cb8">Godot 4 · GDScript</text>
  <text x="640" y="560" text-anchor="middle" font-family="IBM Plex Mono,Consolas,monospace" font-size="16" fill="#7b9cff" letter-spacing="3">PROJET LOCAL</text>
</svg>